solid Untitled-58181ff1
facet normal -0.8480123480276104 -0.5299764689047045 0.0
  outer loop
    vertex 109.6961358283037 25.494441157951748 90.0
    vertex 111.8161358283037 22.102241157951752 3.61322e-15
    vertex 111.8161358283037 22.102241157951752 90.0
  endloop
endfacet
facet normal -0.8480123480276104 -0.5299764689047045 0.0
  outer loop
    vertex 111.8161358283037 22.102241157951752 3.61322e-15
    vertex 109.6961358283037 25.494441157951748 90.0
    vertex 109.6961358283037 25.494441157951748 4.36644e-15
  endloop
endfacet
facet normal 0.8480685228138821 0.5298865733459192 3.561010280379014e-18
  outer loop
    vertex 112.24175375095268 27.08325230680511 4.7586111130841685e-15
    vertex 116.48075375095269 20.29885230680511 90.0
    vertex 116.48075375095269 20.29885230680511 3.252171113084168e-15
  endloop
endfacet
facet normal 0.8480685228138821 0.5298865733459192 3.561010280379014e-18
  outer loop
    vertex 116.48075375095269 20.29885230680511 90.0
    vertex 112.24175375095268 27.08325230680511 4.7586111130841685e-15
    vertex 112.24175375095268 27.08325230680511 90.0
  endloop
endfacet
facet normal -1.0 0.0 0.0
  outer loop
    vertex 87.0 5.10703e-15 59.99999999999999
    vertex 87.0 5.2041899999999925 29.999999999999996
    vertex 87.0 2.8865804231379396e-15 29.999999999999996
  endloop
endfacet
facet normal -1.0 0.0 0.0
  outer loop
    vertex 87.0 5.2041899999999925 29.999999999999996
    vertex 87.0 5.10703e-15 59.99999999999999
    vertex 87.0 5.20419 59.99999999999999
  endloop
endfacet
facet normal -0.5299238166935272 0.8480452514465046 4.740875217844511e-18
  outer loop
    vertex 90.6155 8.853649999999998 90.0
    vertex 111.8161358283037 22.102241157951752 3.61322e-15
    vertex 90.6155 8.853649999999998 1.9659e-15
  endloop
endfacet
facet normal -0.5299238166935272 0.8480452514465046 4.740875217844511e-18
  outer loop
    vertex 111.8161358283037 22.102241157951752 3.61322e-15
    vertex 90.6155 8.853649999999998 90.0
    vertex 111.8161358283037 22.102241157951752 90.0
  endloop
endfacet
facet normal -2.220460000000011e-16 -1.0 -2.220445e-16
  outer loop
    vertex 91.99999999999997 3.9968e-15 59.99999999999999
    vertex 87.0 2.8865804231379396e-15 29.999999999999996
    vertex 91.99999999999997 1.7763504231379371e-15 29.999999999999996
  endloop
endfacet
facet normal -2.220460000000011e-16 -1.0 -2.220445e-16
  outer loop
    vertex 87.0 2.8865804231379396e-15 29.999999999999996
    vertex 91.99999999999997 3.9968e-15 59.99999999999999
    vertex 87.0 5.10703e-15 59.99999999999999
  endloop
endfacet
facet normal 1.0 -0.0 -0.0
  outer loop
    vertex 91.99999999999997 5.002089999999992 29.999999999999996
    vertex 91.99999999999997 3.9968e-15 59.99999999999999
    vertex 91.99999999999997 1.7763504231379371e-15 29.999999999999996
  endloop
endfacet
facet normal 1.0 -0.0 -0.0
  outer loop
    vertex 91.99999999999997 3.9968e-15 59.99999999999999
    vertex 91.99999999999997 5.002089999999992 29.999999999999996
    vertex 91.99999999999997 5.002089999999998 59.99999999999999
  endloop
endfacet
facet normal -0.5298012220895197 0.8481218456521747 -8.430554798368909e-33
  outer loop
    vertex 109.6961358283037 25.494441157951748 90.0
    vertex 112.24175375095268 27.08325230680511 4.7586111130841685e-15
    vertex 109.6961358283037 25.494441157951748 4.36644e-15
  endloop
endfacet
facet normal -0.5298012220895197 0.8481218456521747 -8.430554798368909e-33
  outer loop
    vertex 112.24175375095268 27.08325230680511 4.7586111130841685e-15
    vertex 109.6961358283037 25.494441157951748 90.0
    vertex 112.24175375095268 27.08325230680511 90.0
  endloop
endfacet
facet normal 0.5299036945238932 -0.8480578249918627 8.750692205575248e-18
  outer loop
    vertex 116.48075375095269 20.29885230680511 3.252171113084168e-15
    vertex 91.99999999999997 5.002089999999992 29.999999999999996
    vertex 91.99999999999997 5.002089999999998 1.1106899999999997e-15
  endloop
endfacet
facet normal 0.5299036945238932 -0.8480578249918627 8.750692205575248e-18
  outer loop
    vertex 91.99999999999997 5.002089999999992 29.999999999999996
    vertex 116.48075375095269 20.29885230680511 3.252171113084168e-15
    vertex 116.48075375095269 20.29885230680511 90.0
  endloop
endfacet
facet normal 0.5299036945238932 -0.8480578249918627 8.750692205575248e-18
  outer loop
    vertex 91.99999999999997 5.002089999999992 29.999999999999996
    vertex 116.48075375095269 20.29885230680511 90.0
    vertex 91.99999999999997 5.002089999999998 59.99999999999999
  endloop
endfacet
facet normal 0.5299036945238932 -0.8480578249918627 8.750692205575248e-18
  outer loop
    vertex 91.99999999999997 5.002089999999998 59.99999999999999
    vertex 116.48075375095269 20.29885230680511 90.0
    vertex 91.99999999999997 5.002089999999998 90.0
  endloop
endfacet
facet normal -0.5299144438761841 0.848051108230745 -4.7455845935732056e-18
  outer loop
    vertex 61.9989 45.2143 90.0
    vertex 66.2392 47.8639 1.06279e-14
    vertex 61.9989 45.2143 1.00396e-14
  endloop
endfacet
facet normal -0.5299144438761841 0.848051108230745 -4.7455845935732056e-18
  outer loop
    vertex 66.2392 47.8639 1.06279e-14
    vertex 61.9989 45.2143 90.0
    vertex 66.2392 47.8639 90.0
  endloop
endfacet
facet normal 0.8480481902886041 0.5299191135902002 2.852310331588861e-17
  outer loop
    vertex 66.2392 47.8639 1.06279e-14
    vertex 90.6155 8.853649999999998 90.0
    vertex 90.6155 8.853649999999998 1.9659e-15
  endloop
endfacet
facet normal 0.8480481902886041 0.5299191135902002 2.852310331588861e-17
  outer loop
    vertex 90.6155 8.853649999999998 90.0
    vertex 66.2392 47.8639 1.06279e-14
    vertex 66.2392 47.8639 90.0
  endloop
endfacet
facet normal -0.0 -0.0 1.0
  outer loop
    vertex 87.0 5.20419 90.0
    vertex 66.2392 47.8639 90.0
    vertex 61.9989 45.2143 90.0
  endloop
endfacet
facet normal -0.0 -0.0 1.0
  outer loop
    vertex 66.2392 47.8639 90.0
    vertex 87.0 5.20419 90.0
    vertex 90.6155 8.853649999999998 90.0
  endloop
endfacet
facet normal -0.0 -0.0 1.0
  outer loop
    vertex 90.6155 8.853649999999998 90.0
    vertex 87.0 5.20419 90.0
    vertex 91.99999999999997 5.002089999999998 90.0
  endloop
endfacet
facet normal -0.0 -0.0 1.0
  outer loop
    vertex 90.6155 8.853649999999998 90.0
    vertex 91.99999999999997 5.002089999999998 90.0
    vertex 111.8161358283037 22.102241157951752 90.0
  endloop
endfacet
facet normal -0.0 -0.0 1.0
  outer loop
    vertex 111.8161358283037 22.102241157951752 90.0
    vertex 91.99999999999997 5.002089999999998 90.0
    vertex 116.48075375095269 20.29885230680511 90.0
  endloop
endfacet
facet normal -0.0 -0.0 1.0
  outer loop
    vertex 111.8161358283037 22.102241157951752 90.0
    vertex 116.48075375095269 20.29885230680511 90.0
    vertex 112.24175375095268 27.08325230680511 90.0
  endloop
endfacet
facet normal -0.0 -0.0 1.0
  outer loop
    vertex 112.24175375095268 27.08325230680511 90.0
    vertex 109.6961358283037 25.494441157951748 90.0
    vertex 111.8161358283037 22.102241157951752 90.0
  endloop
endfacet
facet normal 0.0 0.0 1.0
  outer loop
    vertex 91.99999999999997 3.9968e-15 59.99999999999999
    vertex 87.0 5.20419 59.99999999999999
    vertex 87.0 5.10703e-15 59.99999999999999
  endloop
endfacet
facet normal 0.0 0.0 1.0
  outer loop
    vertex 87.0 5.20419 59.99999999999999
    vertex 91.99999999999997 3.9968e-15 59.99999999999999
    vertex 91.99999999999997 5.002089999999998 59.99999999999999
  endloop
endfacet
facet normal -0.04038702178273396 -0.9991841113986556 -0.0
  outer loop
    vertex 91.99999999999997 5.002089999999998 90.0
    vertex 87.0 5.20419 59.99999999999999
    vertex 91.99999999999997 5.002089999999998 59.99999999999999
  endloop
endfacet
facet normal -0.04038702178273396 -0.9991841113986556 -0.0
  outer loop
    vertex 87.0 5.20419 59.99999999999999
    vertex 91.99999999999997 5.002089999999998 90.0
    vertex 87.0 5.20419 90.0
  endloop
endfacet
facet normal -4.4347056428714604e-17 1.938774992768453e-16 -1.0
  outer loop
    vertex 112.24175375095268 27.08325230680511 4.7586111130841685e-15
    vertex 111.8161358283037 22.102241157951752 3.61322e-15
    vertex 109.6961358283037 25.494441157951748 4.36644e-15
  endloop
endfacet
facet normal -4.4347056428714604e-17 1.938774992768453e-16 -1.0
  outer loop
    vertex 66.2392 47.8639 1.06279e-14
    vertex 87.0 5.20419 1.15556e-15
    vertex 61.9989 45.2143 1.00396e-14
  endloop
endfacet
facet normal -4.4347056428714604e-17 1.938774992768453e-16 -1.0
  outer loop
    vertex 87.0 5.20419 1.15556e-15
    vertex 66.2392 47.8639 1.06279e-14
    vertex 90.6155 8.853649999999998 1.9659e-15
  endloop
endfacet
facet normal -4.4347056428714604e-17 1.938774992768453e-16 -1.0
  outer loop
    vertex 87.0 5.20419 1.15556e-15
    vertex 90.6155 8.853649999999998 1.9659e-15
    vertex 91.99999999999997 5.002089999999998 1.1106899999999997e-15
  endloop
endfacet
facet normal -4.4347056428714604e-17 1.938774992768453e-16 -1.0
  outer loop
    vertex 91.99999999999997 5.002089999999998 1.1106899999999997e-15
    vertex 90.6155 8.853649999999998 1.9659e-15
    vertex 111.8161358283037 22.102241157951752 3.61322e-15
  endloop
endfacet
facet normal -4.4347056428714604e-17 1.938774992768453e-16 -1.0
  outer loop
    vertex 91.99999999999997 5.002089999999998 1.1106899999999997e-15
    vertex 111.8161358283037 22.102241157951752 3.61322e-15
    vertex 116.48075375095269 20.29885230680511 3.252171113084168e-15
  endloop
endfacet
facet normal -4.4347056428714604e-17 1.938774992768453e-16 -1.0
  outer loop
    vertex 116.48075375095269 20.29885230680511 3.252171113084168e-15
    vertex 111.8161358283037 22.102241157951752 3.61322e-15
    vertex 112.24175375095268 27.08325230680511 4.7586111130841685e-15
  endloop
endfacet
facet normal -0.04038702178273396 -0.9991841113986556 -2.218635099603761e-16
  outer loop
    vertex 91.99999999999997 5.002089999999992 29.999999999999996
    vertex 87.0 5.20419 1.15556e-15
    vertex 91.99999999999997 5.002089999999998 1.1106899999999997e-15
  endloop
endfacet
facet normal -0.04038702178273396 -0.9991841113986556 -2.218635099603761e-16
  outer loop
    vertex 87.0 5.20419 1.15556e-15
    vertex 91.99999999999997 5.002089999999992 29.999999999999996
    vertex 87.0 5.2041899999999925 29.999999999999996
  endloop
endfacet
facet normal -0.04038702178273397 -0.9991841113986556 0.0
  outer loop
    vertex 91.99999999999997 5.002089999999998 59.99999999999999
    vertex 87.0 5.2041899999999925 29.999999999999996
    vertex 91.99999999999997 5.002089999999992 29.999999999999996
  endloop
endfacet
facet normal -0.04038702178273397 -0.9991841113986556 0.0
  outer loop
    vertex 87.0 5.2041899999999925 29.999999999999996
    vertex 91.99999999999997 5.002089999999998 59.99999999999999
    vertex 87.0 5.20419 59.99999999999999
  endloop
endfacet
facet normal 5.224282794050358e-22 2.2204465256206867e-16 -1.0
  outer loop
    vertex 91.99999999999997 5.002089999999992 29.999999999999996
    vertex 87.0 2.8865804231379396e-15 29.999999999999996
    vertex 87.0 5.2041899999999925 29.999999999999996
  endloop
endfacet
facet normal 5.224282794050358e-22 2.2204465256206867e-16 -1.0
  outer loop
    vertex 87.0 2.8865804231379396e-15 29.999999999999996
    vertex 91.99999999999997 5.002089999999992 29.999999999999996
    vertex 91.99999999999997 1.7763504231379371e-15 29.999999999999996
  endloop
endfacet
facet normal -0.8480480152435398 -0.5299193937208686 9.441615228701842e-18
  outer loop
    vertex 61.9989 45.2143 90.0
    vertex 87.0 5.20419 59.99999999999999
    vertex 87.0 5.20419 90.0
  endloop
endfacet
facet normal -0.8480480152435398 -0.5299193937208686 9.441615228701842e-18
  outer loop
    vertex 87.0 5.20419 59.99999999999999
    vertex 61.9989 45.2143 90.0
    vertex 87.0 5.20419 1.15556e-15
  endloop
endfacet
facet normal -0.8480480152435398 -0.5299193937208686 9.441615228701842e-18
  outer loop
    vertex 87.0 5.20419 1.15556e-15
    vertex 61.9989 45.2143 90.0
    vertex 61.9989 45.2143 1.00396e-14
  endloop
endfacet
facet normal -0.8480480152435398 -0.5299193937208686 9.441615228701842e-18
  outer loop
    vertex 87.0 5.20419 1.15556e-15
    vertex 87.0 5.2041899999999925 29.999999999999996
    vertex 87.0 5.20419 59.99999999999999
  endloop
endfacet
endsolid Untitled-58181ff1
