solid 收納櫃
facet normal 0.0 0.0 -1.0
  outer loop
    vertex 31.0 9.5 0.0
    vertex 0.0 0.0 0.0
    vertex 0.0 9.5 0.0
  endloop
endfacet
facet normal 0.0 0.0 -1.0
  outer loop
    vertex 0.0 0.0 0.0
    vertex 31.0 9.5 0.0
    vertex 31.0 0.0 0.0
  endloop
endfacet
facet normal -0.0 1.0 -0.0
  outer loop
    vertex 5.639932965095795e-15 9.5 2.0000000000000018
    vertex 31.0 9.5 0.0
    vertex 0.0 9.5 0.0
  endloop
endfacet
facet normal -0.0 1.0 -0.0
  outer loop
    vertex 31.0 9.5 0.0
    vertex 5.639932965095795e-15 9.5 2.0000000000000018
    vertex 30.98288972274762 9.5 13.261052384440104
  endloop
endfacet
facet normal -0.0 1.0 -0.0
  outer loop
    vertex 30.98288972274762 9.5 13.261052384440104
    vertex 5.639932965095795e-15 9.5 2.0000000000000018
    vertex 11.000000000000002 9.5 13.000000000000002
  endloop
endfacet
facet normal -0.0 1.0 -0.0
  outer loop
    vertex 30.98288972274762 9.5 13.261052384440104
    vertex 11.000000000000002 9.5 13.000000000000002
    vertex 11.017110277252378 9.5 13.261052384440104
  endloop
endfacet
facet normal -0.0 1.0 -0.0
  outer loop
    vertex 30.98288972274762 9.5 13.261052384440104
    vertex 11.017110277252378 9.5 13.261052384440104
    vertex 11.068148347421863 9.5 13.517638090205041
  endloop
endfacet
facet normal -0.0 1.0 -0.0
  outer loop
    vertex 30.98288972274762 9.5 13.261052384440104
    vertex 11.068148347421863 9.5 13.517638090205041
    vertex 30.931851652578136 9.5 13.517638090205041
  endloop
endfacet
facet normal -0.0 1.0 -0.0
  outer loop
    vertex 30.931851652578136 9.5 13.517638090205041
    vertex 11.068148347421863 9.5 13.517638090205041
    vertex 11.152240934977426 9.5 13.765366864730181
  endloop
endfacet
facet normal -0.0 1.0 -0.0
  outer loop
    vertex 30.931851652578136 9.5 13.517638090205041
    vertex 11.152240934977426 9.5 13.765366864730181
    vertex 30.847759065022572 9.5 13.765366864730181
  endloop
endfacet
facet normal -0.0 1.0 -0.0
  outer loop
    vertex 30.847759065022572 9.5 13.765366864730181
    vertex 11.152240934977426 9.5 13.765366864730181
    vertex 11.267949192431121 9.5 14.000000000000002
  endloop
endfacet
facet normal -0.0 1.0 -0.0
  outer loop
    vertex 30.847759065022572 9.5 13.765366864730181
    vertex 11.267949192431121 9.5 14.000000000000002
    vertex 30.732050807568875 9.5 14.000000000000002
  endloop
endfacet
facet normal -0.0 1.0 -0.0
  outer loop
    vertex 30.732050807568875 9.5 14.000000000000002
    vertex 11.267949192431121 9.5 14.000000000000002
    vertex 11.41329331941753 9.5 14.217522858017443
  endloop
endfacet
facet normal -0.0 1.0 -0.0
  outer loop
    vertex 30.732050807568875 9.5 14.000000000000002
    vertex 11.41329331941753 9.5 14.217522858017443
    vertex 30.58670668058247 9.5 14.217522858017443
  endloop
endfacet
facet normal -0.0 1.0 -0.0
  outer loop
    vertex 30.58670668058247 9.5 14.217522858017443
    vertex 11.41329331941753 9.5 14.217522858017443
    vertex 11.585786437626904 9.5 14.414213562373098
  endloop
endfacet
facet normal -0.0 1.0 -0.0
  outer loop
    vertex 30.58670668058247 9.5 14.217522858017443
    vertex 11.585786437626904 9.5 14.414213562373098
    vertex 30.414213562373092 9.5 14.414213562373098
  endloop
endfacet
facet normal -0.0 1.0 -0.0
  outer loop
    vertex 30.414213562373092 9.5 14.414213562373098
    vertex 11.585786437626904 9.5 14.414213562373098
    vertex 11.78247714198256 9.5 14.58670668058247
  endloop
endfacet
facet normal -0.0 1.0 -0.0
  outer loop
    vertex 30.414213562373092 9.5 14.414213562373098
    vertex 11.78247714198256 9.5 14.58670668058247
    vertex 30.217522858017436 9.5 14.58670668058247
  endloop
endfacet
facet normal -0.0 1.0 -0.0
  outer loop
    vertex 30.217522858017436 9.5 14.58670668058247
    vertex 11.78247714198256 9.5 14.58670668058247
    vertex 12.0 9.5 14.732050807568877
  endloop
endfacet
facet normal -0.0 1.0 -0.0
  outer loop
    vertex 30.217522858017436 9.5 14.58670668058247
    vertex 12.0 9.5 14.732050807568877
    vertex 29.999999999999996 9.5 14.732050807568877
  endloop
endfacet
facet normal -0.0 1.0 -0.0
  outer loop
    vertex 29.999999999999996 9.5 14.732050807568877
    vertex 12.0 9.5 14.732050807568877
    vertex 12.234633135269819 9.5 14.847759065022574
  endloop
endfacet
facet normal -0.0 1.0 -0.0
  outer loop
    vertex 29.999999999999996 9.5 14.732050807568877
    vertex 12.234633135269819 9.5 14.847759065022574
    vertex 29.76536686473018 9.5 14.847759065022574
  endloop
endfacet
facet normal -0.0 1.0 -0.0
  outer loop
    vertex 29.76536686473018 9.5 14.847759065022574
    vertex 12.234633135269819 9.5 14.847759065022574
    vertex 12.482361909794957 9.5 14.931851652578137
  endloop
endfacet
facet normal -0.0 1.0 -0.0
  outer loop
    vertex 29.76536686473018 9.5 14.847759065022574
    vertex 12.482361909794957 9.5 14.931851652578137
    vertex 29.517638090205036 9.5 14.931851652578137
  endloop
endfacet
facet normal -0.0 1.0 -0.0
  outer loop
    vertex 29.517638090205036 9.5 14.931851652578137
    vertex 12.482361909794957 9.5 14.931851652578137
    vertex 12.738947615559896 9.5 14.982889722747622
  endloop
endfacet
facet normal -0.0 1.0 -0.0
  outer loop
    vertex 29.517638090205036 9.5 14.931851652578137
    vertex 12.738947615559896 9.5 14.982889722747622
    vertex 29.2610523844401 9.5 14.982889722747622
  endloop
endfacet
facet normal 0.9999994288258084 0.0005100893949976915 0.0009392320619029291
  outer loop
    vertex 31.0 9.5 0.0
    vertex 31.0 0.0 13.000000000000002
    vertex 31.0 0.0 0.0
  endloop
endfacet
facet normal 0.9999994288258084 0.0005100893949976915 0.0009392320619029291
  outer loop
    vertex 31.0 0.0 13.000000000000002
    vertex 31.0 9.5 0.0
    vertex 30.98288972274762 0.0 13.261052384440104
  endloop
endfacet
facet normal 0.9999994288258084 0.0005100893949976915 0.0009392320619029291
  outer loop
    vertex 30.98288972274762 0.0 13.261052384440104
    vertex 31.0 9.5 0.0
    vertex 30.98288972274762 9.5 13.261052384440104
  endloop
endfacet
facet normal -1.0 2.4026620254892377e-16 2.3499720687899144e-15
  outer loop
    vertex 5.639932965095795e-15 1.9999999999999991 2.0000000000000018
    vertex 0.0 0.0 0.0
    vertex 0.0 0.0 1.9999999999999998
  endloop
endfacet
facet normal -1.0 2.4026620254892377e-16 2.3499720687899144e-15
  outer loop
    vertex 0.0 0.0 0.0
    vertex 5.639932965095795e-15 1.9999999999999991 2.0000000000000018
    vertex 0.0 9.5 0.0
  endloop
endfacet
facet normal -1.0 2.4026620254892377e-16 2.3499720687899144e-15
  outer loop
    vertex 0.0 9.5 0.0
    vertex 5.639932965095795e-15 1.9999999999999991 2.0000000000000018
    vertex 5.639932965095795e-15 2.999999999999999 2.0000000000000018
  endloop
endfacet
facet normal -1.0 2.4026620254892377e-16 2.3499720687899144e-15
  outer loop
    vertex 0.0 9.5 0.0
    vertex 5.639932965095795e-15 2.999999999999999 2.0000000000000018
    vertex 5.639932965095795e-15 6.500000000000001 2.0000000000000018
  endloop
endfacet
facet normal -1.0 2.4026620254892377e-16 2.3499720687899144e-15
  outer loop
    vertex 0.0 9.5 0.0
    vertex 5.639932965095795e-15 6.500000000000001 2.0000000000000018
    vertex 5.639932965095795e-15 7.5 2.0000000000000018
  endloop
endfacet
facet normal -1.0 2.4026620254892377e-16 2.3499720687899144e-15
  outer loop
    vertex 0.0 9.5 0.0
    vertex 5.639932965095795e-15 7.5 2.0000000000000018
    vertex 5.639932965095795e-15 9.5 2.0000000000000018
  endloop
endfacet
facet normal 0.0 0.0 1.0
  outer loop
    vertex 27.5 1.9999999999999996 2.0000000000000018
    vertex 14.500000000000005 7.5 2.0000000000000018
    vertex 14.500000000000005 1.9999999999999991 2.0000000000000018
  endloop
endfacet
facet normal 0.0 0.0 1.0
  outer loop
    vertex 14.500000000000005 7.5 2.0000000000000018
    vertex 27.5 1.9999999999999996 2.0000000000000018
    vertex 27.5 7.5 2.0000000000000018
  endloop
endfacet
facet normal -2.7115062332191332e-17 1.0 -0.0
  outer loop
    vertex 14.500000000000005 1.9999999999999991 15.0
    vertex 27.5 1.9999999999999996 2.0000000000000018
    vertex 14.500000000000005 1.9999999999999991 2.0000000000000018
  endloop
endfacet
facet normal -2.7115062332191332e-17 1.0 -0.0
  outer loop
    vertex 27.5 1.9999999999999996 2.0000000000000018
    vertex 14.500000000000005 1.9999999999999991 15.0
    vertex 27.5 1.9999999999999996 15.0
  endloop
endfacet
facet normal -1.0 0.0 -0.0
  outer loop
    vertex 27.5 7.5 15.0
    vertex 27.5 1.9999999999999996 2.0000000000000018
    vertex 27.5 1.9999999999999996 15.0
  endloop
endfacet
facet normal -1.0 0.0 -0.0
  outer loop
    vertex 27.5 1.9999999999999996 2.0000000000000018
    vertex 27.5 7.5 15.0
    vertex 27.5 7.5 2.0000000000000018
  endloop
endfacet
facet normal -0.0 -1.0 -0.0
  outer loop
    vertex 27.5 7.5 15.0
    vertex 14.500000000000005 7.5 2.0000000000000018
    vertex 27.5 7.5 2.0000000000000018
  endloop
endfacet
facet normal -0.0 -1.0 -0.0
  outer loop
    vertex 14.500000000000005 7.5 2.0000000000000018
    vertex 27.5 7.5 15.0
    vertex 14.500000000000005 7.5 15.0
  endloop
endfacet
facet normal 1.0 0.0 0.0
  outer loop
    vertex 14.500000000000005 7.5 2.0000000000000018
    vertex 14.500000000000005 1.9999999999999991 15.0
    vertex 14.500000000000005 1.9999999999999991 2.0000000000000018
  endloop
endfacet
facet normal 1.0 0.0 0.0
  outer loop
    vertex 14.500000000000005 1.9999999999999991 15.0
    vertex 14.500000000000005 7.5 2.0000000000000018
    vertex 14.500000000000005 7.5 15.0
  endloop
endfacet
facet normal -0.0 0.0009005405428625519 0.9999995945132832
  outer loop
    vertex 28.999999999999996 0.0 15.0
    vertex 14.500000000000005 1.9999999999999991 15.0
    vertex 12.999999999999998 0.0 15.0
  endloop
endfacet
facet normal -0.0 0.0009005405428625519 0.9999995945132832
  outer loop
    vertex 14.500000000000005 1.9999999999999991 15.0
    vertex 28.999999999999996 0.0 15.0
    vertex 27.5 1.9999999999999996 15.0
  endloop
endfacet
facet normal -0.0 0.0009005405428625519 0.9999995945132832
  outer loop
    vertex 27.5 1.9999999999999996 15.0
    vertex 28.999999999999996 0.0 15.0
    vertex 27.5 7.5 15.0
  endloop
endfacet
facet normal -0.0 0.0009005405428625519 0.9999995945132832
  outer loop
    vertex 12.999999999999998 0.0 15.0
    vertex 12.738947615559896 9.5 14.982889722747622
    vertex 12.738947615559896 0.0 14.982889722747622
  endloop
endfacet
facet normal -0.0 0.0009005405428625519 0.9999995945132832
  outer loop
    vertex 12.738947615559896 9.5 14.982889722747622
    vertex 12.999999999999998 0.0 15.0
    vertex 14.500000000000005 7.5 15.0
  endloop
endfacet
facet normal -0.0 0.0009005405428625519 0.9999995945132832
  outer loop
    vertex 12.738947615559896 9.5 14.982889722747622
    vertex 14.500000000000005 7.5 15.0
    vertex 29.2610523844401 9.5 14.982889722747622
  endloop
endfacet
facet normal -0.0 0.0009005405428625519 0.9999995945132832
  outer loop
    vertex 14.500000000000005 7.5 15.0
    vertex 12.999999999999998 0.0 15.0
    vertex 14.500000000000005 1.9999999999999991 15.0
  endloop
endfacet
facet normal -0.0 0.0009005405428625519 0.9999995945132832
  outer loop
    vertex 29.2610523844401 9.5 14.982889722747622
    vertex 14.500000000000005 7.5 15.0
    vertex 27.5 7.5 15.0
  endloop
endfacet
facet normal -0.0 0.0009005405428625519 0.9999995945132832
  outer loop
    vertex 29.2610523844401 9.5 14.982889722747622
    vertex 27.5 7.5 15.0
    vertex 28.999999999999996 0.0 15.0
  endloop
endfacet
facet normal -0.0 0.0009005405428625519 0.9999995945132832
  outer loop
    vertex 29.2610523844401 9.5 14.982889722747622
    vertex 28.999999999999996 0.0 15.0
    vertex 29.2610523844401 0.0 14.982889722747622
  endloop
endfacet
facet normal -0.0 -0.0 1.0
  outer loop
    vertex 11.000000000000005 1.9999999999999991 2.0000000000000018
    vertex 5.639932965095795e-15 2.999999999999999 2.0000000000000018
    vertex 5.639932965095795e-15 1.9999999999999991 2.0000000000000018
  endloop
endfacet
facet normal -0.0 -0.0 1.0
  outer loop
    vertex 5.639932965095795e-15 2.999999999999999 2.0000000000000018
    vertex 11.000000000000005 1.9999999999999991 2.0000000000000018
    vertex 11.000000000000005 2.999999999999999 2.0000000000000018
  endloop
endfacet
facet normal 0.0003673522290570401 0.9999999093718293 0.00021519450104524868
  outer loop
    vertex 11.0 1.9869089999999998 13.000000000000002
    vertex 11.000000000000005 1.9999999999999991 2.0000000000000018
    vertex 5.639932965095795e-15 1.9999999999999991 2.0000000000000018
  endloop
endfacet
facet normal 0.0 -1.0 0.0
  outer loop
    vertex 11.000000000000002 2.999999999999999 13.000000000000002
    vertex 5.639932965095795e-15 2.999999999999999 2.0000000000000018
    vertex 11.000000000000005 2.999999999999999 2.0000000000000018
  endloop
endfacet
facet normal -0.0 -0.0 1.0
  outer loop
    vertex 11.000000000000005 6.500000000000001 2.0000000000000018
    vertex 5.639932965095795e-15 7.5 2.0000000000000018
    vertex 5.639932965095795e-15 6.500000000000001 2.0000000000000018
  endloop
endfacet
facet normal -0.0 -0.0 1.0
  outer loop
    vertex 5.639932965095795e-15 7.5 2.0000000000000018
    vertex 11.000000000000005 6.500000000000001 2.0000000000000018
    vertex 11.000000000000005 7.5 2.0000000000000018
  endloop
endfacet
facet normal 0.0006478935082988344 0.9999996549740151 0.0005198902315832593
  outer loop
    vertex 11.000000000000002 6.48814 13.000000000000002
    vertex 11.000000000000005 6.500000000000001 2.0000000000000018
    vertex 5.639932965095795e-15 6.500000000000001 2.0000000000000018
  endloop
endfacet
facet normal -0.9999999171875971 8.129468745322512e-07 0.0004069694562346753
  outer loop
    vertex 11.017110277252378 9.5 13.261052384440104
    vertex 11.0 0.0 13.000000000000002
    vertex 11.017110277252378 0.0 13.261052384440104
  endloop
endfacet
facet normal -0.9999999171875971 8.129468745322512e-07 0.0004069694562346753
  outer loop
    vertex 11.0 0.0 13.000000000000002
    vertex 11.017110277252378 9.5 13.261052384440104
    vertex 11.0 1.9869089999999998 13.000000000000002
  endloop
endfacet
facet normal -0.9999999171875971 8.129468745322512e-07 0.0004069694562346753
  outer loop
    vertex 11.0 1.9869089999999998 13.000000000000002
    vertex 11.017110277252378 9.5 13.261052384440104
    vertex 11.000000000000002 2.999999999999999 13.000000000000002
  endloop
endfacet
facet normal -0.9999999171875971 8.129468745322512e-07 0.0004069694562346753
  outer loop
    vertex 11.0 1.9869089999999998 13.000000000000002
    vertex 11.000000000000002 2.999999999999999 13.000000000000002
    vertex 11.000000000000005 1.9999999999999991 2.0000000000000018
  endloop
endfacet
facet normal -0.9999999171875971 8.129468745322512e-07 0.0004069694562346753
  outer loop
    vertex 11.000000000000002 2.999999999999999 13.000000000000002
    vertex 11.017110277252378 9.5 13.261052384440104
    vertex 11.000000000000002 6.48814 13.000000000000002
  endloop
endfacet
facet normal -0.9999999171875971 8.129468745322512e-07 0.0004069694562346753
  outer loop
    vertex 11.000000000000002 6.48814 13.000000000000002
    vertex 11.017110277252378 9.5 13.261052384440104
    vertex 11.000000000000002 7.5 13.000000000000002
  endloop
endfacet
facet normal -0.9999999171875971 8.129468745322512e-07 0.0004069694562346753
  outer loop
    vertex 11.000000000000002 6.48814 13.000000000000002
    vertex 11.000000000000002 7.5 13.000000000000002
    vertex 11.000000000000005 6.500000000000001 2.0000000000000018
  endloop
endfacet
facet normal -0.9999999171875971 8.129468745322512e-07 0.0004069694562346753
  outer loop
    vertex 11.000000000000002 7.5 13.000000000000002
    vertex 11.017110277252378 9.5 13.261052384440104
    vertex 11.000000000000002 9.5 13.000000000000002
  endloop
endfacet
facet normal -0.9999999171875971 8.129468745322512e-07 0.0004069694562346753
  outer loop
    vertex 11.000000000000005 7.5 2.0000000000000018
    vertex 11.000000000000005 6.500000000000001 2.0000000000000018
    vertex 11.000000000000002 7.5 13.000000000000002
  endloop
endfacet
facet normal -0.9999999171875971 8.129468745322512e-07 0.0004069694562346753
  outer loop
    vertex 11.000000000000005 2.999999999999999 2.0000000000000018
    vertex 11.000000000000005 1.9999999999999991 2.0000000000000018
    vertex 11.000000000000002 2.999999999999999 13.000000000000002
  endloop
endfacet
facet normal 0.0 -1.0 0.0
  outer loop
    vertex 11.000000000000002 7.5 13.000000000000002
    vertex 5.639932965095795e-15 7.5 2.0000000000000018
    vertex 11.000000000000005 7.5 2.0000000000000018
  endloop
endfacet
facet normal -0.7071067811865477 7.901370592036388e-16 0.7071067811865474
  outer loop
    vertex 11.0 1.9869089999999998 13.000000000000002
    vertex 0.0 0.0 1.9999999999999998
    vertex 11.0 0.0 13.000000000000002
  endloop
endfacet
facet normal -0.7071067811865477 7.901370592036388e-16 0.7071067811865474
  outer loop
    vertex 0.0 0.0 1.9999999999999998
    vertex 11.0 1.9869089999999998 13.000000000000002
    vertex 5.639932965095795e-15 1.9999999999999991 2.0000000000000018
  endloop
endfacet
facet normal -0.7071067811865476 6.345388148744152e-17 0.7071067811865475
  outer loop
    vertex 11.000000000000002 6.48814 13.000000000000002
    vertex 5.639932965095795e-15 2.999999999999999 2.0000000000000018
    vertex 11.000000000000002 2.999999999999999 13.000000000000002
  endloop
endfacet
facet normal -0.7071067811865476 6.345388148744152e-17 0.7071067811865475
  outer loop
    vertex 5.639932965095795e-15 2.999999999999999 2.0000000000000018
    vertex 11.000000000000002 6.48814 13.000000000000002
    vertex 5.639932965095795e-15 6.500000000000001 2.0000000000000018
  endloop
endfacet
facet normal -0.7071067811865477 0.0 0.7071067811865475
  outer loop
    vertex 11.000000000000002 9.5 13.000000000000002
    vertex 5.639932965095795e-15 7.5 2.0000000000000018
    vertex 11.000000000000002 7.5 13.000000000000002
  endloop
endfacet
facet normal -0.7071067811865477 0.0 0.7071067811865475
  outer loop
    vertex 5.639932965095795e-15 7.5 2.0000000000000018
    vertex 11.000000000000002 9.5 13.000000000000002
    vertex 5.639932965095795e-15 9.5 2.0000000000000018
  endloop
endfacet
facet normal -0.98078528040323 0.0 0.19509032201613133
  outer loop
    vertex 11.068148347421863 9.5 13.517638090205041
    vertex 11.017110277252378 0.0 13.261052384440104
    vertex 11.068148347421863 0.0 13.517638090205041
  endloop
endfacet
facet normal -0.98078528040323 0.0 0.19509032201613133
  outer loop
    vertex 11.017110277252378 0.0 13.261052384440104
    vertex 11.068148347421863 9.5 13.517638090205041
    vertex 11.017110277252378 9.5 13.261052384440104
  endloop
endfacet
facet normal -0.9469301294951066 -0.0 0.32143946530315903
  outer loop
    vertex 11.152240934977426 9.5 13.765366864730181
    vertex 11.068148347421863 0.0 13.517638090205041
    vertex 11.152240934977426 0.0 13.765366864730181
  endloop
endfacet
facet normal -0.9469301294951066 -0.0 0.32143946530315903
  outer loop
    vertex 11.068148347421863 0.0 13.517638090205041
    vertex 11.152240934977426 9.5 13.765366864730181
    vertex 11.068148347421863 9.5 13.517638090205041
  endloop
endfacet
facet normal -0.8968727415326899 -0.0 0.44228869021899847
  outer loop
    vertex 11.267949192431121 9.5 14.000000000000002
    vertex 11.152240934977426 0.0 13.765366864730181
    vertex 11.267949192431121 0.0 14.000000000000002
  endloop
endfacet
facet normal -0.8968727415326899 -0.0 0.44228869021899847
  outer loop
    vertex 11.152240934977426 0.0 13.765366864730181
    vertex 11.267949192431121 9.5 14.000000000000002
    vertex 11.152240934977426 9.5 13.765366864730181
  endloop
endfacet
facet normal -0.8314696123025428 -0.0 0.555570233019606
  outer loop
    vertex 11.41329331941753 9.5 14.217522858017443
    vertex 11.267949192431121 0.0 14.000000000000002
    vertex 11.41329331941753 0.0 14.217522858017443
  endloop
endfacet
facet normal -0.8314696123025428 -0.0 0.555570233019606
  outer loop
    vertex 11.267949192431121 0.0 14.000000000000002
    vertex 11.41329331941753 9.5 14.217522858017443
    vertex 11.267949192431121 9.5 14.000000000000002
  endloop
endfacet
facet normal -0.7518398074789794 -0.0 0.6593458151000668
  outer loop
    vertex 11.585786437626904 9.5 14.414213562373098
    vertex 11.41329331941753 0.0 14.217522858017443
    vertex 11.585786437626904 0.0 14.414213562373098
  endloop
endfacet
facet normal -0.7518398074789794 -0.0 0.6593458151000668
  outer loop
    vertex 11.41329331941753 0.0 14.217522858017443
    vertex 11.585786437626904 9.5 14.414213562373098
    vertex 11.41329331941753 9.5 14.217522858017443
  endloop
endfacet
facet normal -0.6593458151000638 -0.0 0.751839807478982
  outer loop
    vertex 11.78247714198256 0.0 14.58670668058247
    vertex 11.585786437626904 9.5 14.414213562373098
    vertex 11.585786437626904 0.0 14.414213562373098
  endloop
endfacet
facet normal -0.6593458151000638 -0.0 0.751839807478982
  outer loop
    vertex 11.585786437626904 9.5 14.414213562373098
    vertex 11.78247714198256 0.0 14.58670668058247
    vertex 11.78247714198256 9.5 14.58670668058247
  endloop
endfacet
facet normal -0.5555702330196023 -0.0 0.8314696123025453
  outer loop
    vertex 12.0 0.0 14.732050807568877
    vertex 11.78247714198256 9.5 14.58670668058247
    vertex 11.78247714198256 0.0 14.58670668058247
  endloop
endfacet
facet normal -0.5555702330196023 -0.0 0.8314696123025453
  outer loop
    vertex 11.78247714198256 9.5 14.58670668058247
    vertex 12.0 0.0 14.732050807568877
    vertex 12.0 9.5 14.732050807568877
  endloop
endfacet
facet normal -0.4422886902190005 -0.0 0.8968727415326888
  outer loop
    vertex 12.234633135269819 0.0 14.847759065022574
    vertex 12.0 9.5 14.732050807568877
    vertex 12.0 0.0 14.732050807568877
  endloop
endfacet
facet normal -0.4422886902190005 -0.0 0.8968727415326888
  outer loop
    vertex 12.0 9.5 14.732050807568877
    vertex 12.234633135269819 0.0 14.847759065022574
    vertex 12.234633135269819 9.5 14.847759065022574
  endloop
endfacet
facet normal -0.32143946530316553 -0.0 0.9469301294951044
  outer loop
    vertex 12.482361909794957 0.0 14.931851652578137
    vertex 12.234633135269819 9.5 14.847759065022574
    vertex 12.234633135269819 0.0 14.847759065022574
  endloop
endfacet
facet normal -0.32143946530316553 -0.0 0.9469301294951044
  outer loop
    vertex 12.234633135269819 9.5 14.847759065022574
    vertex 12.482361909794957 0.0 14.931851652578137
    vertex 12.482361909794957 9.5 14.931851652578137
  endloop
endfacet
facet normal -0.1950903220161303 -0.0 0.9807852804032302
  outer loop
    vertex 12.738947615559896 0.0 14.982889722747622
    vertex 12.482361909794957 9.5 14.931851652578137
    vertex 12.482361909794957 0.0 14.931851652578137
  endloop
endfacet
facet normal -0.1950903220161303 -0.0 0.9807852804032302
  outer loop
    vertex 12.482361909794957 9.5 14.931851652578137
    vertex 12.738947615559896 0.0 14.982889722747622
    vertex 12.738947615559896 9.5 14.982889722747622
  endloop
endfacet
facet normal 0.0 -1.0 0.0
  outer loop
    vertex 31.0 0.0 13.000000000000002
    vertex 0.0 0.0 0.0
    vertex 31.0 0.0 0.0
  endloop
endfacet
facet normal 0.0 -1.0 0.0
  outer loop
    vertex 0.0 0.0 0.0
    vertex 31.0 0.0 13.000000000000002
    vertex 0.0 0.0 1.9999999999999998
  endloop
endfacet
facet normal 0.0 -1.0 0.0
  outer loop
    vertex 0.0 0.0 1.9999999999999998
    vertex 31.0 0.0 13.000000000000002
    vertex 11.0 0.0 13.000000000000002
  endloop
endfacet
facet normal 0.0 -1.0 0.0
  outer loop
    vertex 11.0 0.0 13.000000000000002
    vertex 31.0 0.0 13.000000000000002
    vertex 30.98288972274762 0.0 13.261052384440104
  endloop
endfacet
facet normal 0.0 -1.0 0.0
  outer loop
    vertex 11.0 0.0 13.000000000000002
    vertex 30.98288972274762 0.0 13.261052384440104
    vertex 11.017110277252378 0.0 13.261052384440104
  endloop
endfacet
facet normal 0.0 -1.0 0.0
  outer loop
    vertex 11.017110277252378 0.0 13.261052384440104
    vertex 30.98288972274762 0.0 13.261052384440104
    vertex 30.931851652578136 0.0 13.517638090205041
  endloop
endfacet
facet normal 0.0 -1.0 0.0
  outer loop
    vertex 11.017110277252378 0.0 13.261052384440104
    vertex 30.931851652578136 0.0 13.517638090205041
    vertex 11.068148347421863 0.0 13.517638090205041
  endloop
endfacet
facet normal 0.0 -1.0 0.0
  outer loop
    vertex 11.068148347421863 0.0 13.517638090205041
    vertex 30.931851652578136 0.0 13.517638090205041
    vertex 30.847759065022572 0.0 13.765366864730181
  endloop
endfacet
facet normal 0.0 -1.0 0.0
  outer loop
    vertex 11.068148347421863 0.0 13.517638090205041
    vertex 30.847759065022572 0.0 13.765366864730181
    vertex 11.152240934977426 0.0 13.765366864730181
  endloop
endfacet
facet normal 0.0 -1.0 0.0
  outer loop
    vertex 11.152240934977426 0.0 13.765366864730181
    vertex 30.847759065022572 0.0 13.765366864730181
    vertex 30.732050807568875 0.0 14.000000000000002
  endloop
endfacet
facet normal 0.0 -1.0 0.0
  outer loop
    vertex 11.152240934977426 0.0 13.765366864730181
    vertex 30.732050807568875 0.0 14.000000000000002
    vertex 11.267949192431121 0.0 14.000000000000002
  endloop
endfacet
facet normal 0.0 -1.0 0.0
  outer loop
    vertex 11.267949192431121 0.0 14.000000000000002
    vertex 30.732050807568875 0.0 14.000000000000002
    vertex 30.58670668058247 0.0 14.217522858017443
  endloop
endfacet
facet normal 0.0 -1.0 0.0
  outer loop
    vertex 11.267949192431121 0.0 14.000000000000002
    vertex 30.58670668058247 0.0 14.217522858017443
    vertex 11.41329331941753 0.0 14.217522858017443
  endloop
endfacet
facet normal 0.0 -1.0 0.0
  outer loop
    vertex 11.41329331941753 0.0 14.217522858017443
    vertex 30.58670668058247 0.0 14.217522858017443
    vertex 30.414213562373092 0.0 14.414213562373098
  endloop
endfacet
facet normal 0.0 -1.0 0.0
  outer loop
    vertex 11.41329331941753 0.0 14.217522858017443
    vertex 30.414213562373092 0.0 14.414213562373098
    vertex 11.585786437626904 0.0 14.414213562373098
  endloop
endfacet
facet normal 0.0 -1.0 0.0
  outer loop
    vertex 11.585786437626904 0.0 14.414213562373098
    vertex 30.414213562373092 0.0 14.414213562373098
    vertex 30.217522858017436 0.0 14.58670668058247
  endloop
endfacet
facet normal 0.0 -1.0 0.0
  outer loop
    vertex 11.585786437626904 0.0 14.414213562373098
    vertex 30.217522858017436 0.0 14.58670668058247
    vertex 11.78247714198256 0.0 14.58670668058247
  endloop
endfacet
facet normal 0.0 -1.0 0.0
  outer loop
    vertex 11.78247714198256 0.0 14.58670668058247
    vertex 30.217522858017436 0.0 14.58670668058247
    vertex 29.999999999999996 0.0 14.732050807568877
  endloop
endfacet
facet normal 0.0 -1.0 0.0
  outer loop
    vertex 11.78247714198256 0.0 14.58670668058247
    vertex 29.999999999999996 0.0 14.732050807568877
    vertex 12.0 0.0 14.732050807568877
  endloop
endfacet
facet normal 0.0 -1.0 0.0
  outer loop
    vertex 12.0 0.0 14.732050807568877
    vertex 29.999999999999996 0.0 14.732050807568877
    vertex 29.76536686473018 0.0 14.847759065022574
  endloop
endfacet
facet normal 0.0 -1.0 0.0
  outer loop
    vertex 12.0 0.0 14.732050807568877
    vertex 29.76536686473018 0.0 14.847759065022574
    vertex 12.234633135269819 0.0 14.847759065022574
  endloop
endfacet
facet normal 0.0 -1.0 0.0
  outer loop
    vertex 12.234633135269819 0.0 14.847759065022574
    vertex 29.76536686473018 0.0 14.847759065022574
    vertex 29.517638090205036 0.0 14.931851652578137
  endloop
endfacet
facet normal 0.0 -1.0 0.0
  outer loop
    vertex 12.234633135269819 0.0 14.847759065022574
    vertex 29.517638090205036 0.0 14.931851652578137
    vertex 12.482361909794957 0.0 14.931851652578137
  endloop
endfacet
facet normal 0.0 -1.0 0.0
  outer loop
    vertex 12.482361909794957 0.0 14.931851652578137
    vertex 29.517638090205036 0.0 14.931851652578137
    vertex 29.2610523844401 0.0 14.982889722747622
  endloop
endfacet
facet normal 0.0 -1.0 0.0
  outer loop
    vertex 12.482361909794957 0.0 14.931851652578137
    vertex 29.2610523844401 0.0 14.982889722747622
    vertex 12.738947615559896 0.0 14.982889722747622
  endloop
endfacet
facet normal 0.0 -1.0 0.0
  outer loop
    vertex 12.738947615559896 0.0 14.982889722747622
    vertex 29.2610523844401 0.0 14.982889722747622
    vertex 28.999999999999996 0.0 15.0
  endloop
endfacet
facet normal 0.0 -1.0 0.0
  outer loop
    vertex 12.738947615559896 0.0 14.982889722747622
    vertex 28.999999999999996 0.0 15.0
    vertex 12.999999999999998 0.0 15.0
  endloop
endfacet
facet normal 0.19509032201613133 -0.0 0.98078528040323
  outer loop
    vertex 29.517638090205036 0.0 14.931851652578137
    vertex 29.2610523844401 9.5 14.982889722747622
    vertex 29.2610523844401 0.0 14.982889722747622
  endloop
endfacet
facet normal 0.19509032201613133 -0.0 0.98078528040323
  outer loop
    vertex 29.2610523844401 9.5 14.982889722747622
    vertex 29.517638090205036 0.0 14.931851652578137
    vertex 29.517638090205036 9.5 14.931851652578137
  endloop
endfacet
facet normal 0.3214394653031606 0.0 0.946930129495106
  outer loop
    vertex 29.76536686473018 0.0 14.847759065022574
    vertex 29.517638090205036 9.5 14.931851652578137
    vertex 29.517638090205036 0.0 14.931851652578137
  endloop
endfacet
facet normal 0.3214394653031606 0.0 0.946930129495106
  outer loop
    vertex 29.517638090205036 9.5 14.931851652578137
    vertex 29.76536686473018 0.0 14.847759065022574
    vertex 29.76536686473018 9.5 14.847759065022574
  endloop
endfacet
facet normal 0.44228869021900696 0.0 0.8968727415326856
  outer loop
    vertex 29.999999999999996 0.0 14.732050807568877
    vertex 29.76536686473018 9.5 14.847759065022574
    vertex 29.76536686473018 0.0 14.847759065022574
  endloop
endfacet
facet normal 0.44228869021900696 0.0 0.8968727415326856
  outer loop
    vertex 29.76536686473018 9.5 14.847759065022574
    vertex 29.999999999999996 0.0 14.732050807568877
    vertex 29.999999999999996 9.5 14.732050807568877
  endloop
endfacet
facet normal 0.5555702330196023 0.0 0.8314696123025453
  outer loop
    vertex 30.217522858017436 0.0 14.58670668058247
    vertex 29.999999999999996 9.5 14.732050807568877
    vertex 29.999999999999996 0.0 14.732050807568877
  endloop
endfacet
facet normal 0.5555702330196023 0.0 0.8314696123025453
  outer loop
    vertex 29.999999999999996 9.5 14.732050807568877
    vertex 30.217522858017436 0.0 14.58670668058247
    vertex 30.217522858017436 9.5 14.58670668058247
  endloop
endfacet
facet normal 0.6593458151000638 0.0 0.751839807478982
  outer loop
    vertex 30.414213562373092 0.0 14.414213562373098
    vertex 30.217522858017436 9.5 14.58670668058247
    vertex 30.217522858017436 0.0 14.58670668058247
  endloop
endfacet
facet normal 0.6593458151000638 0.0 0.751839807478982
  outer loop
    vertex 30.217522858017436 9.5 14.58670668058247
    vertex 30.414213562373092 0.0 14.414213562373098
    vertex 30.414213562373092 9.5 14.414213562373098
  endloop
endfacet
facet normal 0.7518398074789713 0.0 0.659345815100076
  outer loop
    vertex 30.58670668058247 9.5 14.217522858017443
    vertex 30.414213562373092 0.0 14.414213562373098
    vertex 30.58670668058247 0.0 14.217522858017443
  endloop
endfacet
facet normal 0.7518398074789713 0.0 0.659345815100076
  outer loop
    vertex 30.414213562373092 0.0 14.414213562373098
    vertex 30.58670668058247 9.5 14.217522858017443
    vertex 30.414213562373092 9.5 14.414213562373098
  endloop
endfacet
facet normal 0.8314696123025453 0.0 0.5555702330196023
  outer loop
    vertex 30.732050807568875 9.5 14.000000000000002
    vertex 30.58670668058247 0.0 14.217522858017443
    vertex 30.732050807568875 0.0 14.000000000000002
  endloop
endfacet
facet normal 0.8314696123025453 0.0 0.5555702330196023
  outer loop
    vertex 30.58670668058247 0.0 14.217522858017443
    vertex 30.732050807568875 9.5 14.000000000000002
    vertex 30.58670668058247 9.5 14.217522858017443
  endloop
endfacet
facet normal 0.8968727415326899 0.0 0.44228869021899847
  outer loop
    vertex 30.847759065022572 9.5 13.765366864730181
    vertex 30.732050807568875 0.0 14.000000000000002
    vertex 30.847759065022572 0.0 13.765366864730181
  endloop
endfacet
facet normal 0.8968727415326899 0.0 0.44228869021899847
  outer loop
    vertex 30.732050807568875 0.0 14.000000000000002
    vertex 30.847759065022572 9.5 13.765366864730181
    vertex 30.732050807568875 9.5 14.000000000000002
  endloop
endfacet
facet normal 0.946930129495105 0.0 0.32143946530316386
  outer loop
    vertex 30.931851652578136 9.5 13.517638090205041
    vertex 30.847759065022572 0.0 13.765366864730181
    vertex 30.931851652578136 0.0 13.517638090205041
  endloop
endfacet
facet normal 0.946930129495105 0.0 0.32143946530316386
  outer loop
    vertex 30.847759065022572 0.0 13.765366864730181
    vertex 30.931851652578136 9.5 13.517638090205041
    vertex 30.847759065022572 9.5 13.765366864730181
  endloop
endfacet
facet normal 0.9807852804032321 -0.0 0.195090322016121
  outer loop
    vertex 30.98288972274762 9.5 13.261052384440104
    vertex 30.931851652578136 0.0 13.517638090205041
    vertex 30.98288972274762 0.0 13.261052384440104
  endloop
endfacet
facet normal 0.9807852804032321 -0.0 0.195090322016121
  outer loop
    vertex 30.931851652578136 0.0 13.517638090205041
    vertex 30.98288972274762 9.5 13.261052384440104
    vertex 30.931851652578136 9.5 13.517638090205041
  endloop
endfacet
endsolid 收納櫃
